<?xml version="1.0" encoding="UTF-8"?>
<svg version="1.1" xmlns="http://www.w3.org/2000/svg" width="200" height="200">
<path d="M0 0 C66 0 132 0 200 0 C200 66 200 132 200 200 C134 200 68 200 0 200 C0 134 0 68 0 0 Z " fill="#FEFEFE" transform="translate(0,0)"/>
<path d="M0 0 C2.041875 1.2375 2.041875 1.2375 4.125 2.5 C4.125 6.79 4.125 11.08 4.125 15.5 C2.145 16.49 2.145 16.49 0.125 17.5 C0.83076172 18.00466797 0.83076172 18.00466797 1.55078125 18.51953125 C3.86842773 21.43528005 3.94711018 24.59729361 4.3125 28.1875 C4.4352832 29.2403418 4.4352832 29.2403418 4.56054688 30.31445312 C4.76029273 32.04166726 4.94419988 33.77070003 5.125 35.5 C-3.79440353 40.81733672 -11.6008328 41.28173011 -21.875 40.5 C-25.04193584 39.49830344 -27.0921002 38.35526654 -29.875 36.5 C-29.875 31.55 -29.875 26.6 -29.875 21.5 C-28.885 21.17 -27.895 20.84 -26.875 20.5 C-27.535 19.84 -28.195 19.18 -28.875 18.5 C-29.5078125 16.07421875 -29.5078125 16.07421875 -30 13.1875 C-30.16757812 12.24261719 -30.33515625 11.29773438 -30.5078125 10.32421875 C-30.85636406 7.64333817 -31.09961992 5.19543901 -30.875 2.5 C-22.40590865 -4.22545489 -9.43869569 -4.74623872 0 0 Z " fill="#FBFBF7" transform="translate(37.875,79.5)"/>
<path d="M0 0 C1.75570312 0.04060547 1.75570312 0.04060547 3.546875 0.08203125 C4.43890625 0.11683594 5.3309375 0.15164062 6.25 0.1875 C6.25 0.8475 6.25 1.5075 6.25 2.1875 C7.24 2.1875 8.23 2.1875 9.25 2.1875 C9.25 1.5275 9.25 0.8675 9.25 0.1875 C11.56 0.1875 13.87 0.1875 16.25 0.1875 C15.92 7.7775 15.59 15.3675 15.25 23.1875 C13.6 23.1875 11.95 23.1875 10.25 23.1875 C9.755 18.2375 9.755 18.2375 9.25 13.1875 C8.92 13.1875 8.59 13.1875 8.25 13.1875 C8.1571875 14.79625 8.1571875 14.79625 8.0625 16.4375 C7.25 20.1875 7.25 20.1875 5.125 22.625 C1.49560408 24.59749778 -0.66789442 24.6977632 -4.75 24.1875 C-7.06279611 23.03110194 -8.92409828 22.01340172 -10.75 20.1875 C-10.93023553 17.38055317 -11.02807437 14.62163173 -11.0625 11.8125 C-11.09150391 11.03132813 -11.12050781 10.25015625 -11.15039062 9.4453125 C-11.21349473 3.77565102 -11.21349473 3.77565102 -9.15234375 1.16015625 C-5.97573766 -0.12598183 -3.41756631 -0.10252699 0 0 Z " fill="#F2C897" transform="translate(152.75,93.8125)"/>
<path d="M0 0 C4.16241825 -0.60544265 6.68407956 -0.66943021 10.46484375 1.25390625 C15.2948982 4.87840416 17.41856035 8.04553997 18.33056641 13.92749023 C18.66926583 16.95403699 18.87715636 19.95664785 19 23 C10.08059647 28.31733672 2.2741672 28.78173011 -8 28 C-11.16693584 26.99830344 -13.2171002 25.85526654 -16 24 C-16.16682272 19.07872966 -16.24828052 15.49656104 -14 11 C-13.01 11.33 -12.02 11.66 -11 12 C-10.67 14.64 -10.34 17.28 -10 20 C-7.22276075 20.78688445 -4.77389923 21.11949924 -1.890625 21.09765625 C-0.75947266 21.09282227 -0.75947266 21.09282227 0.39453125 21.08789062 C1.17183594 21.07951172 1.94914062 21.07113281 2.75 21.0625 C3.93916016 21.05573242 3.93916016 21.05573242 5.15234375 21.04882812 C7.10159508 21.03708565 9.05080738 21.01915146 11 21 C10.97342986 14.39732118 10.26103795 10.25778687 5.56640625 5.47265625 C5.04949219 4.98667969 4.53257813 4.50070313 4 4 C3.21625 3.195625 2.4325 2.39125 1.625 1.5625 C1.08875 1.046875 0.5525 0.53125 0 0 Z " fill="#E68D33" transform="translate(24,92)"/>
<path d="M0 0 C2.041875 1.2375 2.041875 1.2375 4.125 2.5 C3.465 6.79 2.805 11.08 2.125 15.5 C0.805 14.84 -0.515 14.18 -1.875 13.5 C-1.875 11.19 -1.875 8.88 -1.875 6.5 C-8.21695101 3.68135511 -16.28553892 3.30351297 -22.875 5.5 C-23.5097413 9.33665853 -23.72578446 12.68648377 -22.875 16.5 C-19.91909897 19.78779167 -16.53320156 22.05684396 -12.875 24.5 C-12.875 24.83 -12.875 25.16 -12.875 25.5 C-18.083305 26.15103813 -21.01912127 25.9420221 -25.25 22.6875 C-29.78449413 18.321938 -30.51491778 13.60339366 -30.875 7.5 C-30.92914062 6.59894531 -30.98328125 5.69789062 -31.0390625 4.76953125 C-30.98492188 4.02058594 -30.93078125 3.27164063 -30.875 2.5 C-22.40590865 -4.22545489 -9.43869569 -4.74623872 0 0 Z " fill="#3266A3" transform="translate(37.875,79.5)"/>
<path d="M0 0 C1.08667969 0.11988281 2.17335937 0.23976563 3.29296875 0.36328125 C4.12441406 0.47027344 4.95585937 0.57726562 5.8125 0.6875 C5.92888036 3.93719769 5.99980581 7.1863583 6.0625 10.4375 C6.09601563 11.35789062 6.12953125 12.27828125 6.1640625 13.2265625 C6.2625175 20.01995741 6.2625175 20.01995741 4.05078125 23.30078125 C0.34834858 25.59460952 -1.87911341 25.16620962 -6.1875 24.6875 C-8.1875 23.375 -8.1875 23.375 -9.1875 21.6875 C-9.1875 20.6975 -9.1875 19.7075 -9.1875 18.6875 C-7.5375 18.6875 -5.8875 18.6875 -4.1875 18.6875 C-4.1875 19.3475 -4.1875 20.0075 -4.1875 20.6875 C-2.21213255 20.33963292 -2.21213255 20.33963292 -0.1875 19.6875 C0.1425 19.0275 0.4725 18.3675 0.8125 17.6875 C-0.280625 17.749375 -1.37375 17.81125 -2.5 17.875 C-6.1875 17.6875 -6.1875 17.6875 -7.89453125 16.55078125 C-9.73367737 13.90041056 -9.58600645 11.88437673 -9.5625 8.6875 C-9.57023438 7.635625 -9.57796875 6.58375 -9.5859375 5.5 C-9.1875 2.6875 -9.1875 2.6875 -8.05078125 0.79296875 C-5.26623978 -0.85907577 -3.16977908 -0.37492011 0 0 Z " fill="#E78625" transform="translate(181.1875,100.3125)"/>
<path d="M0 0 C2.38185385 2.09603139 2.29692208 4.32085388 2.5625 7.375 C0.1875 7.5625 0.1875 7.5625 -2.4375 7.375 C-3.0975 6.385 -3.7575 5.395 -4.4375 4.375 C-5.7575 4.375 -7.0775 4.375 -8.4375 4.375 C-8.7675 5.365 -9.0975 6.355 -9.4375 7.375 C-8.73882812 7.56835938 -8.04015625 7.76171875 -7.3203125 7.9609375 C-6.41023438 8.22132812 -5.50015625 8.48171875 -4.5625 8.75 C-3.65757813 9.00523438 -2.75265625 9.26046875 -1.8203125 9.5234375 C0.5625 10.375 0.5625 10.375 2.5625 12.375 C2.98681591 16.19384318 3.1015434 18.49905448 1.0625 21.8125 C-2.41165683 23.98384802 -5.50481966 24.00703791 -9.4375 23.375 C-12.375 22.25 -12.375 22.25 -14.4375 20.375 C-15.25 17.1875 -15.25 17.1875 -15.4375 14.375 C-13.4575 14.375 -11.4775 14.375 -9.4375 14.375 C-9.4375 15.695 -9.4375 17.015 -9.4375 18.375 C-7.1275 18.375 -4.8175 18.375 -2.4375 18.375 C-2.4375 17.055 -2.4375 15.735 -2.4375 14.375 C-3.35982422 14.21064453 -3.35982422 14.21064453 -4.30078125 14.04296875 C-5.10902344 13.88441406 -5.91726562 13.72585937 -6.75 13.5625 C-7.95076172 13.33626953 -7.95076172 13.33626953 -9.17578125 13.10546875 C-11.73624316 12.27851473 -12.82942273 11.51740675 -14.4375 9.375 C-15.19086323 3.34809417 -15.19086323 3.34809417 -12.9375 0.4375 C-8.63636169 -1.39048378 -4.47947853 -1.14858424 0 0 Z " fill="#3869A4" transform="translate(66.4375,94.625)"/>
<path d="M0 0 C3.0625 1.75 3.0625 1.75 5 4 C5 5.32 5 6.64 5 8 C3.68 8 2.36 8 1 8 C0.67 7.01 0.34 6.02 0 5 C-2.31 5 -4.62 5 -7 5 C-7 9.29 -7 13.58 -7 18 C-5.02 18 -3.04 18 -1 18 C-0.67 17.01 -0.34 16.02 0 15 C-1.32 15 -2.64 15 -4 15 C-4 13.68 -4 12.36 -4 11 C-1.03 11 1.94 11 5 11 C5.60636995 19.24663128 5.60636995 19.24663128 2.9375 22.5625 C-0.72047696 24.35257383 -2.96794262 24.50400717 -7 24 C-9.31279611 22.84360194 -11.17409828 21.82590172 -13 20 C-13.18023553 17.19305317 -13.27807437 14.43413173 -13.3125 11.625 C-13.34150391 10.84382813 -13.37050781 10.06265625 -13.40039062 9.2578125 C-13.46407659 3.5358732 -13.46407659 3.5358732 -11.2578125 0.98828125 C-7.4694096 -0.66996431 -4.0505845 -0.65587756 0 0 Z " fill="#EB8824" transform="translate(155,94)"/>
<path d="M0 0 C2.42130331 3.63195496 2.21022785 5.38349348 2.125 9.6875 C2.10695313 10.86699219 2.08890625 12.04648438 2.0703125 13.26171875 C2.04710938 14.16535156 2.02390625 15.06898437 2 16 C0.35 16 -1.3 16 -3 16 C-3.33 12.37 -3.66 8.74 -4 5 C-4.99 4.67 -5.98 4.34 -7 4 C-7 8.29 -7 12.58 -7 17 C-8.65 17 -10.3 17 -12 17 C-12.33 13.04 -12.66 9.08 -13 5 C-13.99 5 -14.98 5 -16 5 C-16.33 8.63 -16.66 12.26 -17 16 C-18.32 16 -19.64 16 -21 16 C-21 10.72 -21 5.44 -21 0 C-18.89625 0.020625 -16.7925 0.04125 -14.625 0.0625 C-9.28129054 0.11488931 -5.2090772 -1.3022693 0 0 Z " fill="#537CAB" transform="translate(94,101)"/>
<path d="M0 0 C0 5.28 0 10.56 0 16 C-1.918125 16.226875 -3.83625 16.45375 -5.8125 16.6875 C-6.89144531 16.81511719 -7.97039062 16.94273438 -9.08203125 17.07421875 C-12 17 -12 17 -13.859375 15.89453125 C-15.47449991 13.21187515 -15.43368434 11.11357526 -15.4375 8 C-15.45683594 6.948125 -15.47617188 5.89625 -15.49609375 4.8125 C-15 2 -15 2 -13.33203125 0.10546875 C-8.98044459 -1.95734369 -4.65975854 -0.61020647 0 0 Z " fill="#3768A1" transform="translate(114,101)"/>
<path d="M0 0 C1.65 0 3.3 0 5 0 C5 1.65 5 3.3 5 5 C6.32 5 7.64 5 9 5 C9 6.32 9 7.64 9 9 C7.68 9 6.36 9 5 9 C5.33 11.31 5.66 13.62 6 16 C6.99 16.33 7.98 16.66 9 17 C9 18.32 9 19.64 9 21 C3.6 21.48 3.6 21.48 1.125 19.5 C-0.50517055 15.87739877 -0.19772667 12.95453342 0 9 C-2.31 9.33 -4.62 9.66 -7 10 C-7.33 13.63 -7.66 17.26 -8 21 C-9.32 21 -10.64 21 -12 21 C-12 15.72 -12 10.44 -12 5 C-2.25 3.875 -2.25 3.875 0 5 C0 3.35 0 1.7 0 0 Z " fill="#30629D" transform="translate(130,96)"/>
<path d="M0 0 C2.475 0.495 2.475 0.495 5 1 C5.33 1.99 5.66 2.98 6 4 C6.99 4.66 7.98 5.32 9 6 C10.87097688 11.5193818 11.18184553 15.32714144 10 21 C8.68 21 7.36 21 6 21 C6 21.66 6 22.32 6 23 C-0.36764068 26.39607503 -8.16053329 25.43988773 -15 24 C-15.33 23.01 -15.66 22.02 -16 21 C-8.74 20.67 -1.48 20.34 6 20 C5.74956232 9.80844351 5.74956232 9.80844351 0 2 C0 1.34 0 0.68 0 0 Z " fill="#F28314" transform="translate(30,94)"/>
<path d="M0 0 C1.918125 0.226875 3.83625 0.45375 5.8125 0.6875 C5.8125 7.2875 5.8125 13.8875 5.8125 20.6875 C5.4825 20.6875 5.1525 20.6875 4.8125 20.6875 C4.8125 14.4175 4.8125 8.1475 4.8125 1.6875 C1.1825 1.6875 -2.4475 1.6875 -6.1875 1.6875 C-6.1875 2.3475 -6.1875 3.0075 -6.1875 3.6875 C-2.7225 3.1925 -2.7225 3.1925 0.8125 2.6875 C0.8125 6.3175 0.8125 9.9475 0.8125 13.6875 C-1.18704746 13.73004356 -3.18791636 13.72830783 -5.1875 13.6875 C-6.1875 12.6875 -6.1875 12.6875 -6.28515625 10.83984375 C-6.25260417 8.7890625 -6.22005208 6.73828125 -6.1875 4.6875 C-6.8475 4.6875 -7.5075 4.6875 -8.1875 4.6875 C-8.07340407 6.14672693 -7.94584456 7.60490598 -7.8125 9.0625 C-7.74289063 9.87460938 -7.67328125 10.68671875 -7.6015625 11.5234375 C-7.35857412 13.89084191 -7.35857412 13.89084191 -5.1875 15.6875 C-3.19928687 16.08514263 -1.19805661 16.42525349 0.8125 16.6875 C0.8125 17.0175 0.8125 17.3475 0.8125 17.6875 C-5.63909555 18.05268465 -5.63909555 18.05268465 -7.89453125 16.55078125 C-9.73367737 13.90041056 -9.58600645 11.88437673 -9.5625 8.6875 C-9.57023438 7.635625 -9.57796875 6.58375 -9.5859375 5.5 C-9.1875 2.6875 -9.1875 2.6875 -8.05078125 0.79296875 C-5.26623978 -0.85907577 -3.16977908 -0.37492011 0 0 Z " fill="#E19447" transform="translate(181.1875,100.3125)"/>
<path d="M0 0 C3.0625 1.75 3.0625 1.75 5 4 C5 5.32 5 6.64 5 8 C3.68 8 2.36 8 1 8 C0.67 7.01 0.34 6.02 0 5 C-2.31 5 -4.62 5 -7 5 C-7 9.29 -7 13.58 -7 18 C-5.35 18.33 -3.7 18.66 -2 19 C-2 19.33 -2 19.66 -2 20 C-4.31 20 -6.62 20 -9 20 C-10.38226016 17.23547967 -10.09525387 14.9538637 -10.0625 11.875 C-10.05347656 10.77929688 -10.04445312 9.68359375 -10.03515625 8.5546875 C-10.02355469 7.71164063 -10.01195312 6.86859375 -10 6 C-10.66 6 -11.32 6 -12 6 C-12 10.62 -12 15.24 -12 20 C-12.33 20 -12.66 20 -13 20 C-13.10787818 17.22813012 -13.18723327 14.46044463 -13.25 11.6875 C-13.28351563 10.90181641 -13.31703125 10.11613281 -13.3515625 9.30664062 C-13.45002737 3.52182949 -13.45002737 3.52182949 -11.26171875 0.984375 C-7.46955273 -0.6661014 -4.05172658 -0.65606249 0 0 Z " fill="#E49240" transform="translate(155,94)"/>
<path d="M0 0 C10.75 -0.125 10.75 -0.125 13 1 C12.67 5.29 12.34 9.58 12 14 C11.34 14 10.68 14 10 14 C10 11.03 10 8.06 10 5 C8.35 5 6.7 5 5 5 C4.67 8.63 4.34 12.26 4 16 C2.68 16 1.36 16 0 16 C0 10.72 0 5.44 0 0 Z " fill="#2E62A1" transform="translate(73,101)"/>
<path d="M0 0 C0.61875 0.309375 1.2375 0.61875 1.875 0.9375 C6.18802294 2.4039278 10.4759996 2.66619026 15 3 C15 3.33 15 3.66 15 4 C8.375 5.125 8.375 5.125 5 4 C5 9.28 5 14.56 5 20 C6.32 20.33 7.64 20.66 9 21 C7.35 21 5.7 21 4 21 C3.67 17.7 3.34 14.4 3 11 C2.67 13.31 2.34 15.62 2 18 C1.34 17.67 0.68 17.34 0 17 C0 14.69 0 12.38 0 10 C-0.62648438 9.72285156 -1.25296875 9.44570312 -1.8984375 9.16015625 C-2.71570313 8.79792969 -3.53296875 8.43570313 -4.375 8.0625 C-5.18710937 7.70285156 -5.99921875 7.34320313 -6.8359375 6.97265625 C-8.23683785 6.3430097 -9.62625284 5.68687358 -11 5 C-10.67 3.68 -10.34 2.36 -10 1 C-8.35 1.33 -6.7 1.66 -5 2 C-4.67 2.99 -4.34 3.98 -4 5 C-2.35 5 -0.7 5 1 5 C0.67 3.35 0.34 1.7 0 0 Z " fill="#C2D6E9" transform="translate(68,97)"/>
<path d="M0 0 C1.65 0.33 3.3 0.66 5 1 C4.97679687 1.91523437 4.95359375 2.83046875 4.9296875 3.7734375 C4.91164062 4.96195312 4.89359375 6.15046875 4.875 7.375 C4.85179687 8.55835937 4.82859375 9.74171875 4.8046875 10.9609375 C4.67133771 14.11153817 4.67133771 14.11153817 7 16 C9.32275177 16.40047444 11.65739357 16.7397104 14 17 C13.67 17.99 13.34 18.98 13 20 C11.68 20 10.36 20 9 20 C9 19.34 9 18.68 9 18 C7.35 18 5.7 18 4 18 C4.33 19.32 4.66 20.64 5 22 C4.34 22 3.68 22 3 22 C3 20.35 3 18.7 3 17 C0.69 17.33 -1.62 17.66 -4 18 C-4 17.34 -4 16.68 -4 16 C-2.68 16 -1.36 16 0 16 C0 10.72 0 5.44 0 0 Z " fill="#FDF2D9" transform="translate(168,101)"/>
<path d="M0 0 C0.33 1.32 0.66 2.64 1 4 C2.65 4 4.3 4 6 4 C6 4.33 6 4.66 6 5 C3.03 5 0.06 5 -3 5 C-3 6.65 -3 8.3 -3 10 C-1.68 10 -0.36 10 1 10 C0.67 11.32 0.34 12.64 0 14 C-1.99954746 14.04254356 -4.00041636 14.04080783 -6 14 C-7 13 -7 13 -7.09765625 10.27734375 C-7.08605469 9.17519531 -7.07445312 8.07304688 -7.0625 6.9375 C-7.05347656 5.83277344 -7.04445312 4.72804688 -7.03515625 3.58984375 C-7.02355469 2.73519531 -7.01195312 1.88054687 -7 1 C-4.53721199 -0.231394 -2.7204945 -0.07159196 0 0 Z " fill="#FEF2D2" transform="translate(154,99)"/>
<path d="M0 0 C2.9140625 1.515625 2.9140625 1.515625 6 4 C6.78281669 6.80857897 7.18715831 8.91090698 7.375 11.75 C7.47748047 12.79607422 7.47748047 12.79607422 7.58203125 13.86328125 C7.74600908 15.57333579 7.87639321 17.28655417 8 19 C1.39495493 22.93762302 -3.04040898 24.19258843 -10.8125 24.25 C-11.49892578 24.270625 -12.18535156 24.29125 -12.89257812 24.3125 C-17.97725127 24.35098381 -21.44643883 23.26189967 -26 21 C-22.30234178 19.83531911 -20.00189855 20.48744208 -16.28515625 21.515625 C-10.6709097 22.70565333 -4.54019152 22.47738441 1 21 C1 20.34 1 19.68 1 19 C2.32 19 3.64 19 5 19 C5.22550964 13.58776868 4.66768771 9.17860919 3 4 C2.01 3.34 1.02 2.68 0 2 C0 1.34 0 0.68 0 0 Z " fill="#E2913C" transform="translate(35,96)"/>
<path d="M0 0 C0.33 0 0.66 0 1 0 C1.04898438 1.04800781 1.09796875 2.09601563 1.1484375 3.17578125 C1.22348143 4.55471354 1.29902857 5.9336185 1.375 7.3125 C1.4059375 8.00279297 1.436875 8.69308594 1.46875 9.40429688 C1.68124919 13.06990789 1.91933861 14.87900792 4 18 C3.34 18.33 2.68 18.66 2 19 C2 18.34 2 17.68 2 17 C1.34 17 0.68 17 0 17 C-0.33 17.66 -0.66 18.32 -1 19 C-2.65 19 -4.3 19 -6 19 C-4.68 18.67 -3.36 18.34 -2 18 C-2 16.68 -2 15.36 -2 14 C-3.32 13.67 -4.64 13.34 -6 13 C-6 10.69 -6 8.38 -6 6 C-4.68 6 -3.36 6 -2 6 C-1.855625 5.38125 -1.71125 4.7625 -1.5625 4.125 C-1 2 -1 2 0 0 Z " fill="#F6E9D5" transform="translate(141,99)"/>
<path d="M0 0 C0 0.66 0 1.32 0 2 C2.97 2 5.94 2 9 2 C9 2.33 9 2.66 9 3 C7.55367187 3.03867188 7.55367187 3.03867188 6.078125 3.078125 C4.81484375 3.13484375 3.5515625 3.1915625 2.25 3.25 C0.37054687 3.31960937 0.37054687 3.31960937 -1.546875 3.390625 C-5.44933209 4.0792939 -6.61017408 4.92080122 -9 8 C-10.23512079 10.13309192 -10.23512079 10.13309192 -11 12 C-11.66 11.67 -12.32 11.34 -13 11 C-13.59355614 8.35139573 -13.74209269 5.70802678 -14 3 C-9.43672206 -0.53286034 -5.50366792 -0.32374517 0 0 Z " fill="#2663AA" transform="translate(21,79)"/>
<path d="M0 0 C1.98 0 3.96 0 6 0 C6 1.32 6 2.64 6 4 C6.928125 3.95875 7.85625 3.9175 8.8125 3.875 C12 4 12 4 15 6 C14.67 6.99 14.34 7.98 14 9 C6.93765586 9.35910224 6.93765586 9.35910224 3.0625 7.875 C0.35778677 5.41616979 0.23815147 3.57227202 0 0 Z " fill="#4072AB" transform="translate(51,109)"/>
<path d="M0 0 C2.97 0 5.94 0 9 0 C9 0.99 9 1.98 9 3 C8.03320312 3.32097656 8.03320312 3.32097656 7.046875 3.6484375 C4.72160885 4.8473523 4.72160885 4.8473523 4.390625 7.6015625 C4.34421875 8.59929687 4.2978125 9.59703125 4.25 10.625 C4.19328125 11.62789062 4.1365625 12.63078125 4.078125 13.6640625 C4.05234375 14.43492188 4.0265625 15.20578125 4 16 C2.68 16 1.36 16 0 16 C0 10.72 0 5.44 0 0 Z " fill="#326299" transform="translate(118,101)"/>
<path d="M0 0 C1.65 0 3.3 0 5 0 C5.309375 0.94875 5.61875 1.8975 5.9375 2.875 C6.87394742 5.86080408 6.87394742 5.86080408 8 8 C5.69 8 3.38 8 1 8 C1 10.97 1 13.94 1 17 C0.67 17 0.34 17 0 17 C0 14.36 0 11.72 0 9 C-1.98 9 -3.96 9 -6 9 C-5.01 8.67 -4.02 8.34 -3 8 C-3 7.01 -3 6.02 -3 5 C-3.66 4.67 -4.32 4.34 -5 4 C-3.35 4.33 -1.7 4.66 0 5 C0 3.35 0 1.7 0 0 Z " fill="#2C64A7" transform="translate(130,96)"/>
<path d="M0 0 C2.475 0.495 2.475 0.495 5 1 C5 5.29 5 9.58 5 14 C3.35 14 1.7 14 0 14 C0 9.38 0 4.76 0 0 Z " fill="#3467A2" transform="translate(91,103)"/>
<path d="M0 0 C1.32 0 2.64 0 4 0 C4 5.28 4 10.56 4 16 C2.68 16 1.36 16 0 16 C0 10.72 0 5.44 0 0 Z " fill="#E78524" transform="translate(164,101)"/>
<path d="M0 0 C2.64 0 5.28 0 8 0 C8.33 0.66 8.66 1.32 9 2 C8.01 2 7.02 2 6 2 C6.433125 2.43828125 6.86625 2.8765625 7.3125 3.328125 C12.0200589 8.68951153 12.57735798 12.60701787 12.2109375 19.65625 C12.14132813 20.4296875 12.07171875 21.203125 12 22 C8.57767028 23.14077657 5.91326783 23.09815117 2.3125 23.0625 C0.54326172 23.04896484 0.54326172 23.04896484 -1.26171875 23.03515625 C-2.16535156 23.02355469 -3.06898437 23.01195313 -4 23 C-4 22.67 -4 22.34 -4 22 C0.95 21.67 5.9 21.34 11 21 C10.81356971 14.19529446 10.38017582 10.37922138 5.56640625 5.47265625 C5.04949219 4.98667969 4.53257813 4.50070313 4 4 C3.21625 3.195625 2.4325 2.39125 1.625 1.5625 C1.08875 1.046875 0.5525 0.53125 0 0 Z " fill="#E7A45D" transform="translate(24,92)"/>
<path d="M0 0 C1.33333333 0 2.66666667 0 4 0 C4 5.28 4 10.56 4 16 C2.68 16 1.36 16 0 16 C0 10.72 0 5.44 0 0 Z " fill="#D9E7F1" transform="translate(114,101)"/>
<path d="M0 0 C2.61461749 0.75388138 4.59664383 1.68907845 7 3 C6.9071875 4.670625 6.9071875 4.670625 6.8125 6.375 C6.874375 7.57125 6.93625 8.7675 7 10 C7.99 10.66 8.98 11.32 10 12 C10.33 10.68 10.66 9.36 11 8 C11.33 9.32 11.66 10.64 12 12 C10.02 12.99 10.02 12.99 8 14 C5.9656541 12.58480285 5.09589607 11.45017877 4.578125 9.01953125 C4.33726048 7.01823046 4.16467259 5.0090056 4 3 C-0.35332736 2.15976812 -4.44442519 1.89229005 -8.875 1.9375 C-10.02742188 1.94652344 -11.17984375 1.95554687 -12.3671875 1.96484375 C-13.23601563 1.97644531 -14.10484375 1.98804687 -15 2 C-10.33096244 -1.11269171 -5.47152272 -0.48651426 0 0 Z " fill="#DAEBF7" transform="translate(30,83)"/>
<path d="M0 0 C0.66 0 1.32 0 2 0 C2.33 2.64 2.66 5.28 3 8 C4.299375 7.979375 5.59875 7.95875 6.9375 7.9375 C8.29165633 7.91600546 9.64756083 7.92851801 11 8 C12 9 12 9 12.0625 12.0625 C12.041875 13.031875 12.02125 14.00125 12 15 C11.67 14.01 11.34 13.02 11 12 C9.741875 12.061875 8.48375 12.12375 7.1875 12.1875 C4.58222482 12.31562829 3.41126777 12.28641862 1.25 10.78125 C-0.36575414 8.47880036 -0.30855839 7.09684299 -0.1875 4.3125 C-0.16042969 3.50425781 -0.13335937 2.69601563 -0.10546875 1.86328125 C-0.07066406 1.24839844 -0.03585938 0.63351563 0 0 Z " fill="#EF8416" transform="translate(173,105)"/>
<path d="M0 0 C2.97 0 5.94 0 9 0 C9 2.97 9 5.94 9 9 C8.67 7.68 8.34 6.36 8 5 C7.34 5 6.68 5 6 5 C5.67 6.32 5.34 7.64 5 9 C4.34 9 3.68 9 3 9 C3.33 7.35 3.66 5.7 4 4 C2.68 4 1.36 4 0 4 C0 2.68 0 1.36 0 0 Z " fill="#E28930" transform="translate(151,105)"/>
<path d="M0 0 C1.32 0.33 2.64 0.66 4 1 C4 4.63 4 8.26 4 12 C5.65 12 7.3 12 9 12 C9 12.33 9 12.66 9 13 C7.02 13 5.04 13 3 13 C2.67 12.34 2.34 11.68 2 11 C1.01 11.495 1.01 11.495 0 12 C0 8.04 0 4.08 0 0 Z " fill="#E6F3FB" transform="translate(87,105)"/>
<path d="M0 0 C1.2065625 0.0309375 1.2065625 0.0309375 2.4375 0.0625 C2.7675 1.3825 3.0975 2.7025 3.4375 4.0625 C5.0875 4.0625 6.7375 4.0625 8.4375 4.0625 C8.4375 4.3925 8.4375 4.7225 8.4375 5.0625 C7.51517578 5.11857422 7.51517578 5.11857422 6.57421875 5.17578125 C5.76597656 5.24152344 4.95773438 5.30726562 4.125 5.375 C3.32449219 5.43300781 2.52398437 5.49101563 1.69921875 5.55078125 C-0.92522334 6.14456694 -1.87070672 7.02030294 -3.5625 9.0625 C-3.66015625 2.91015625 -3.66015625 2.91015625 -3.5625 1.0625 C-2.5625 0.0625 -2.5625 0.0625 0 0 Z " fill="#FDFBEC" transform="translate(151.5625,98.9375)"/>
<path d="M0 0 C1.65 0.33 3.3 0.66 5 1 C5.33 1.99 5.66 2.98 6 4 C7.65 4 9.3 4 11 4 C11 5.65 11 7.3 11 9 C7.04 7.35 3.08 5.7 -1 4 C-0.67 2.68 -0.34 1.36 0 0 Z " fill="#E1F0F8" transform="translate(58,98)"/>
<path d="M0 0 C3.63 1.32 7.26 2.64 11 4 C11 5.32 11 6.64 11 8 C8.69 8 6.38 8 4 8 C4 6.68 4 5.36 4 4 C2.68 3.67 1.36 3.34 0 3 C0 2.01 0 1.02 0 0 Z " fill="#EBF6FD" transform="translate(53,105)"/>
<path d="M0 0 C0.33 0 0.66 0 1 0 C1 5.28 1 10.56 1 16 C-0.98 16 -2.96 16 -5 16 C-4.34 15.01 -3.68 14.02 -3 13 C-2.61845057 10.85426069 -2.61845057 10.85426069 -2.5 8.5625 C-2.27357989 5.21714292 -1.65468989 2.92906798 0 0 Z " fill="#FDF1D7" transform="translate(162,101)"/>
<path d="M0 0 C1.67542976 0.28604898 3.34385343 0.61781233 5 1 C5 2.98 5 4.96 5 7 C3.34385343 7.38218767 1.67542976 7.71395102 0 8 C-1 7 -1 7 -1.125 4 C-1 1 -1 1 0 0 Z " fill="#FCF0D6" transform="translate(177,105)"/>
<path d="M0 0 C4.87664009 -0.34833144 7.77050005 0.58314288 12 3 C12 4.32 12 5.64 12 7 C10.68 7 9.36 7 8 7 C7.67 6.01 7.34 5.02 7 4 C4.36 3.67 1.72 3.34 -1 3 C-0.67 2.01 -0.34 1.02 0 0 Z " fill="#EC8420" transform="translate(148,95)"/>
<path d="M0 0 C2.475 0.495 2.475 0.495 5 1 C4.67 4.63 4.34 8.26 4 12 C3.34 11.34 2.68 10.68 2 10 C1.67 11.98 1.34 13.96 1 16 C0.67 16 0.34 16 0 16 C0 10.72 0 5.44 0 0 Z " fill="#F6DAB4" transform="translate(168,101)"/>
<path d="M0 0 C0.51171875 2.6015625 0.51171875 2.6015625 0.6875 5.625 C0.75324219 6.62789062 0.81898437 7.63078125 0.88671875 8.6640625 C0.92410156 9.43492188 0.96148438 10.20578125 1 11 C0.01 10.67 -0.98 10.34 -2 10 C-2.33 7.36 -2.66 4.72 -3 2 C-3.66 2 -4.32 2 -5 2 C-5.66 3.32 -6.32 4.64 -7 6 C-7 3.69 -7 1.38 -7 -1 C-3.51418144 -2.2020064 -3.32007656 -2.21338437 0 0 Z " fill="#F6EED8" transform="translate(15,102)"/>
<path d="M0 0 C2.475 0.495 2.475 0.495 5 1 C5 3.31 5 5.62 5 8 C3.35 8 1.7 8 0 8 C0 5.36 0 2.72 0 0 Z " fill="#EEFAFD" transform="translate(104,105)"/>
<path d="M0 0 C1.65 0 3.3 0 5 0 C5 0.66 5 1.32 5 2 C6.65 1.67 8.3 1.34 10 1 C10 1.66 10 2.32 10 3 C9.01 3.33 8.02 3.66 7 4 C8.32 4.66 9.64 5.32 11 6 C3.5577342 6.36601307 3.5577342 6.36601307 1 4.6875 C0 3 0 3 0 0 Z " fill="#E2913D" transform="translate(172,119)"/>
<path d="M0 0 C2.475 0.495 2.475 0.495 5 1 C5.33 1.99 5.66 2.98 6 4 C6.66 4.66 7.32 5.32 8 6 C7.9765625 8.8203125 7.9765625 8.8203125 7.625 12.125 C7.51414062 13.22070312 7.40328125 14.31640625 7.2890625 15.4453125 C7.19367187 16.28835937 7.09828125 17.13140625 7 18 C6.67 18 6.34 18 6 18 C5.98582031 17.34773438 5.97164062 16.69546875 5.95703125 16.0234375 C5.60268559 9.53029274 4.52119144 6.63711942 0 2 C0 1.34 0 0.68 0 0 Z " fill="#E78722" transform="translate(30,94)"/>
<path d="M0 0 C0.99 0.33 1.98 0.66 3 1 C3 3.64 3 6.28 3 9 C2.01 8.67 1.02 8.34 0 8 C-0.33 9.65 -0.66 11.3 -1 13 C-1.33 13 -1.66 13 -2 13 C-2.16682272 8.07872966 -2.24828052 4.49656104 0 0 Z " fill="#E19649" transform="translate(10,103)"/>
<path d="M0 0 C0.99 0 1.98 0 3 0 C3.04898438 0.68707031 3.09796875 1.37414062 3.1484375 2.08203125 C3.22320312 2.98308594 3.29796875 3.88414063 3.375 4.8125 C3.44460937 5.70582031 3.51421875 6.59914063 3.5859375 7.51953125 C3.86645036 10.24398499 3.86645036 10.24398499 6 13 C5.01 13 4.02 13 3 13 C2.67 11.68 2.34 10.36 2 9 C1.34 9 0.68 9 0 9 C0 6.03 0 3.06 0 0 Z " fill="#DEEFFA" transform="translate(96,105)"/>
<path d="M0 0 C0.66 0 1.32 0 2 0 C2 4.29 2 8.58 2 13 C1.01 13 0.02 13 -1 13 C-1.02696365 11.20841511 -1.04637917 9.41671527 -1.0625 7.625 C-1.07410156 6.62726563 -1.08570312 5.62953125 -1.09765625 4.6015625 C-1 2 -1 2 0 0 Z " fill="#2462AA" transform="translate(111,103)"/>
<path d="M0 0 C0.66 0.33 1.32 0.66 2 1 C1.34 5.29 0.68 9.58 0 14 C-1.32 13.34 -2.64 12.68 -4 12 C-3.67 10.35 -3.34 8.7 -3 7 C-2.01 7.33 -1.02 7.66 0 8 C0 5.36 0 2.72 0 0 Z " fill="#4870A6" transform="translate(40,81)"/>
<path d="M0 0 C1.125 3.75 1.125 3.75 0 6 C-3.96 6 -7.92 6 -12 6 C-12.33 4.68 -12.66 3.36 -13 2 C-12.01 2.495 -12.01 2.495 -11 3 C-5.63036713 3.58184185 -5.63036713 3.58184185 -1 1.5 C-0.67 1.005 -0.34 0.51 0 0 Z " fill="#FDECCF" transform="translate(186,121)"/>
<path d="M0 0 C0.33 0 0.66 0 1 0 C1 5.61 1 11.22 1 17 C0.67 17 0.34 17 0 17 C0 14.36 0 11.72 0 9 C-1.98 9 -3.96 9 -6 9 C-5.01 8.67 -4.02 8.34 -3 8 C-3 7.01 -3 6.02 -3 5 C-3.66 4.67 -4.32 4.34 -5 4 C-3.35 4.33 -1.7 4.66 0 5 C0 3.35 0 1.7 0 0 Z " fill="#7EA3CC" transform="translate(130,96)"/>
<path d="M0 0 C0.33 0.66 0.66 1.32 1 2 C-0.32 2 -1.64 2 -3 2 C-2.67 2.99 -2.34 3.98 -2 5 C-4.97 4.505 -4.97 4.505 -8 4 C-8 2.68 -8 1.36 -8 0 C-5.09660535 -1.45169732 -3.09125158 -0.72348441 0 0 Z " fill="#4372A7" transform="translate(94,101)"/>
<path d="M0 0 C1.32 0.33 2.64 0.66 4 1 C3.67 2.65 3.34 4.3 3 6 C3.66 6.33 4.32 6.66 5 7 C5 8.98 5 10.96 5 13 C3.35 13 1.7 13 0 13 C1.32 12.67 2.64 12.34 4 12 C4 10.68 4 9.36 4 8 C2.68 7.67 1.36 7.34 0 7 C0 4.69 0 2.38 0 0 Z " fill="#BDD5EC" transform="translate(135,105)"/>
<path d="M0 0 C2.875 -0.1875 2.875 -0.1875 6 0 C8.29633824 3.44450737 8.54016485 5.93812283 9 10 C7.68 9.67 6.36 9.34 5 9 C5.66 7.35 6.32 5.7 7 4 C4.69 3.34 2.38 2.68 0 2 C0 1.34 0 0.68 0 0 Z " fill="#2663A6" transform="translate(58,104)"/>
<path d="M0 0 C0.99 0 1.98 0 3 0 C2.67 4.29 2.34 8.58 2 13 C1.34 13 0.68 13 0 13 C0 8.71 0 4.42 0 0 Z " fill="#2464A8" transform="translate(119,103)"/>
<path d="M0 0 C1.32 0.33 2.64 0.66 4 1 C3.67 4.63 3.34 8.26 3 12 C2.34 12 1.68 12 1 12 C0.67 8.04 0.34 4.08 0 0 Z " fill="#2463AB" transform="translate(82,103)"/>
<path d="M0 0 C1.98 0 3.96 0 6 0 C5.67 0.99 5.34 1.98 5 3 C4.67 2.67 4.34 2.34 4 2 C3.67 3.65 3.34 5.3 3 7 C1.5 5.75 1.5 5.75 0 4 C0 2.68 0 1.36 0 0 Z " fill="#5E88B7" transform="translate(51,109)"/>
<path d="M0 0 C1.485 0.99 1.485 0.99 3 2 C5.32387947 2.39387788 7.65793749 2.73486085 10 3 C9.67 3.99 9.34 4.98 9 6 C7.68 6 6.36 6 5 6 C5 5.34 5 4.68 5 4 C3.35 4 1.7 4 0 4 C0 2.68 0 1.36 0 0 Z " fill="#FEEECC" transform="translate(172,115)"/>
<path d="M0 0 C0.33 0 0.66 0 1 0 C1 2.31 1 4.62 1 7 C3.97 7.495 3.97 7.495 7 8 C7.33 8.99 7.66 9.98 8 11 C6.68 11 5.36 11 4 11 C4 10.34 4 9.68 4 9 C2.68 8.67 1.36 8.34 0 8 C0 5.36 0 2.72 0 0 Z " fill="#4F7AB2" transform="translate(103,106)"/>
<path d="M0 0 C-0.33 0.99 -0.66 1.98 -1 3 C-1.99 2.67 -2.98 2.34 -4 2 C-4 2.66 -4 3.32 -4 4 C-5.32 4 -6.64 4 -8 4 C-8.33 5.32 -8.66 6.64 -9 8 C-9.3125 5.6875 -9.3125 5.6875 -9 3 C-5.72821183 0.36439287 -4.27931853 0 0 0 Z " fill="#3C689B" transform="translate(16,79)"/>
<path d="M0 0 C2.01920337 1.30406884 4.01924973 2.63823419 6 4 C6 4.33 6 4.66 6 5 C3.69 5 1.38 5 -1 5 C-0.67 3.35 -0.34 1.7 0 0 Z " fill="#416899" transform="translate(19,100)"/>
<path d="M0 0 C4.95 0.99 4.95 0.99 10 2 C10 2.33 10 2.66 10 3 C8.906875 3.12375 7.81375 3.2475 6.6875 3.375 C2.92618198 3.75464801 2.92618198 3.75464801 0 6 C0 4.02 0 2.04 0 0 Z " fill="#E5F0FC" transform="translate(15,103)"/>
<path d="M0 0 C0.66 0 1.32 0 2 0 C3.625 2 3.625 2 5 4 C4.34 4 3.68 4 3 4 C3 4.66 3 5.32 3 6 C3.66 6.33 4.32 6.66 5 7 C3.35 6.67 1.7 6.34 0 6 C0 4.02 0 2.04 0 0 Z " fill="#2E649A" transform="translate(54,110)"/>
<path d="M0 0 C0.33 0 0.66 0 1 0 C1 1.65 1 3.3 1 5 C1.66 5 2.32 5 3 5 C3 5.99 3 6.98 3 8 C1.68 8 0.36 8 -1 8 C-0.67 5.36 -0.34 2.72 0 0 Z " fill="#ED8415" transform="translate(10,107)"/>
<path d="M0 0 C0.99 0 1.98 0 3 0 C3 2.97 3 5.94 3 9 C0.87491756 5.81237635 0.4979837 3.73487777 0 0 Z " fill="#F18314" transform="translate(182,103)"/>
<path d="M0 0 C1.32 0 2.64 0 4 0 C4 0.66 4 1.32 4 2 C4.99 2 5.98 2 7 2 C6.67 4.31 6.34 6.62 6 9 C5.67 9 5.34 9 5 9 C4.731875 8.071875 4.46375 7.14375 4.1875 6.1875 C3.08851629 3.23759634 2.37581439 1.94384814 0 0 Z " fill="#FAE6CB" transform="translate(155,94)"/>
</svg>
